<svg width="240" height="48" viewBox="0 0 240 48" fill="none" xmlns="http://www.w3.org/2000/svg">
<g filter="url(#filter0_d_107_1776)">
<rect x="4" y="3" width="40" height="40" rx="8" fill="white"/>
<path d="M26 13H18C16.9 13 16.01 13.9 16.01 15L16 31C16 32.1 16.89 33 17.99 33H30C31.1 33 32 32.1 32 31V19L26 13ZM30 31H18V15H25V20H30V31ZM20.82 24.05L19.4 25.46L22.94 29L28.6 23.34L27.19 21.93L22.95 26.17L20.82 24.05Z" fill="#C7CED9"/>
<rect x="4" y="3" width="40" height="40" rx="8" stroke="#EBEEF2"/>
</g>
<g filter="url(#filter1_d_107_1776)">
<rect x="52" y="3" width="40" height="40" rx="8" fill="white"/>
<path d="M70 29H74V27H70V29ZM63 17V19H81V17H63ZM66 24H78V22H66V24Z" fill="#C7CED9"/>
<rect x="52" y="3" width="40" height="40" rx="8" stroke="#EBEEF2"/>
</g>
<g filter="url(#filter2_d_107_1776)">
<rect x="100" y="3" width="40" height="40" rx="8" fill="white"/>
<path d="M111 29H117V27H111V29ZM111 17V19H129V17H111ZM111 24H123V22H111V24Z" fill="#C7CED9"/>
<rect x="100" y="3" width="40" height="40" rx="8" stroke="#EBEEF2"/>
</g>
<g filter="url(#filter3_d_107_1776)">
<rect x="148" y="3" width="40" height="40" rx="8" fill="white"/>
<path d="M161 19C158.79 19 157 20.79 157 23C157 25.21 158.79 27 161 27C163.21 27 165 25.21 165 23C165 20.79 163.21 19 161 19ZM173 17C169.69 17 167 19.69 167 23C167 26.31 169.69 29 173 29C176.31 29 179 26.31 179 23C179 19.69 176.31 17 173 17ZM173 27C170.79 27 169 25.21 169 23C169 20.79 170.79 19 173 19C175.21 19 177 20.79 177 23C177 25.21 175.21 27 173 27Z" fill="#C7CED9"/>
<rect x="148" y="3" width="40" height="40" rx="8" stroke="#EBEEF2"/>
</g>
<g filter="url(#filter4_d_107_1776)">
<rect x="196" y="3" width="40" height="40" rx="8" fill="white"/>
<path d="M217.5 15H213.5V19H217.5V15Z" fill="#C7CED9"/>
<path d="M211.5 27H207.5V31H211.5V27Z" fill="#C7CED9"/>
<path d="M211.5 21H207.5V25H211.5V21Z" fill="#C7CED9"/>
<path d="M211.5 15H207.5V19H211.5V15Z" fill="#C7CED9"/>
<path d="M223.5 15H219.5V19H223.5V15Z" fill="#C7CED9"/>
<path d="M214.5 28.86V31H216.6L222.58 25.03L220.46 22.91L214.5 28.86Z" fill="#C7CED9"/>
<path d="M217.5 23.03V21H213.5V25H215.53L217.5 23.03Z" fill="#C7CED9"/>
<path d="M224.35 22.56L222.94 21.15C222.74 20.95 222.43 20.95 222.23 21.15L221.17 22.21L223.29 24.33L224.35 23.27C224.55 23.07 224.55 22.76 224.35 22.56Z" fill="#C7CED9"/>
<rect x="196" y="3" width="40" height="40" rx="8" stroke="#EBEEF2"/>
</g>
<defs>
<filter id="filter0_d_107_1776" x="0.5" y="0.5" width="47" height="47" filterUnits="userSpaceOnUse" color-interpolation-filters="sRGB">
<feFlood flood-opacity="0" result="BackgroundImageFix"/>
<feColorMatrix in="SourceAlpha" type="matrix" values="0 0 0 0 0 0 0 0 0 0 0 0 0 0 0 0 0 0 127 0" result="hardAlpha"/>
<feOffset dy="1"/>
<feGaussianBlur stdDeviation="1.5"/>
<feColorMatrix type="matrix" values="0 0 0 0 0.376471 0 0 0 0 0.423529 0 0 0 0 0.501961 0 0 0 0.05 0"/>
<feBlend mode="normal" in2="BackgroundImageFix" result="effect1_dropShadow_107_1776"/>
<feBlend mode="normal" in="SourceGraphic" in2="effect1_dropShadow_107_1776" result="shape"/>
</filter>
<filter id="filter1_d_107_1776" x="48.5" y="0.5" width="47" height="47" filterUnits="userSpaceOnUse" color-interpolation-filters="sRGB">
<feFlood flood-opacity="0" result="BackgroundImageFix"/>
<feColorMatrix in="SourceAlpha" type="matrix" values="0 0 0 0 0 0 0 0 0 0 0 0 0 0 0 0 0 0 127 0" result="hardAlpha"/>
<feOffset dy="1"/>
<feGaussianBlur stdDeviation="1.5"/>
<feColorMatrix type="matrix" values="0 0 0 0 0.376471 0 0 0 0 0.423529 0 0 0 0 0.501961 0 0 0 0.05 0"/>
<feBlend mode="normal" in2="BackgroundImageFix" result="effect1_dropShadow_107_1776"/>
<feBlend mode="normal" in="SourceGraphic" in2="effect1_dropShadow_107_1776" result="shape"/>
</filter>
<filter id="filter2_d_107_1776" x="96.5" y="0.5" width="47" height="47" filterUnits="userSpaceOnUse" color-interpolation-filters="sRGB">
<feFlood flood-opacity="0" result="BackgroundImageFix"/>
<feColorMatrix in="SourceAlpha" type="matrix" values="0 0 0 0 0 0 0 0 0 0 0 0 0 0 0 0 0 0 127 0" result="hardAlpha"/>
<feOffset dy="1"/>
<feGaussianBlur stdDeviation="1.5"/>
<feColorMatrix type="matrix" values="0 0 0 0 0.376471 0 0 0 0 0.423529 0 0 0 0 0.501961 0 0 0 0.05 0"/>
<feBlend mode="normal" in2="BackgroundImageFix" result="effect1_dropShadow_107_1776"/>
<feBlend mode="normal" in="SourceGraphic" in2="effect1_dropShadow_107_1776" result="shape"/>
</filter>
<filter id="filter3_d_107_1776" x="144.5" y="0.5" width="47" height="47" filterUnits="userSpaceOnUse" color-interpolation-filters="sRGB">
<feFlood flood-opacity="0" result="BackgroundImageFix"/>
<feColorMatrix in="SourceAlpha" type="matrix" values="0 0 0 0 0 0 0 0 0 0 0 0 0 0 0 0 0 0 127 0" result="hardAlpha"/>
<feOffset dy="1"/>
<feGaussianBlur stdDeviation="1.5"/>
<feColorMatrix type="matrix" values="0 0 0 0 0.376471 0 0 0 0 0.423529 0 0 0 0 0.501961 0 0 0 0.05 0"/>
<feBlend mode="normal" in2="BackgroundImageFix" result="effect1_dropShadow_107_1776"/>
<feBlend mode="normal" in="SourceGraphic" in2="effect1_dropShadow_107_1776" result="shape"/>
</filter>
<filter id="filter4_d_107_1776" x="192.5" y="0.5" width="47" height="47" filterUnits="userSpaceOnUse" color-interpolation-filters="sRGB">
<feFlood flood-opacity="0" result="BackgroundImageFix"/>
<feColorMatrix in="SourceAlpha" type="matrix" values="0 0 0 0 0 0 0 0 0 0 0 0 0 0 0 0 0 0 127 0" result="hardAlpha"/>
<feOffset dy="1"/>
<feGaussianBlur stdDeviation="1.5"/>
<feColorMatrix type="matrix" values="0 0 0 0 0.376471 0 0 0 0 0.423529 0 0 0 0 0.501961 0 0 0 0.05 0"/>
<feBlend mode="normal" in2="BackgroundImageFix" result="effect1_dropShadow_107_1776"/>
<feBlend mode="normal" in="SourceGraphic" in2="effect1_dropShadow_107_1776" result="shape"/>
</filter>
</defs>
</svg>
